<?xml version="1.0" encoding="UTF-8" standalone="no"?>
<!-- Generator: Adobe Illustrator 23.0.0, SVG Export Plug-In . SVG Version: 6.00 Build 0)  -->

<svg
   xmlns:dc="http://purl.org/dc/elements/1.1/"
   xmlns:cc="http://creativecommons.org/ns#"
   xmlns:rdf="http://www.w3.org/1999/02/22-rdf-syntax-ns#"
   xmlns:svg="http://www.w3.org/2000/svg"
   xmlns="http://www.w3.org/2000/svg"
   xmlns:sodipodi="http://sodipodi.sourceforge.net/DTD/sodipodi-0.dtd"
   xmlns:inkscape="http://www.inkscape.org/namespaces/inkscape"
   version="1.1"
   id="Layer_1"
   x="0px"
   y="0px"
   viewBox="0 0 388.66 83.44"
   xml:space="preserve"
   sodipodi:docname="2018-10-31-originstamp-logo-landscape-color.svg"
   style="enable-background:new 0 0 388.66 83.44;"
   inkscape:version="0.92.4 (5da689c313, 2019-01-14)"><metadata
   id="metadata49"><rdf:RDF><cc:Work
       rdf:about=""><dc:format>image/svg+xml</dc:format><dc:type
         rdf:resource="http://purl.org/dc/dcmitype/StillImage" /><dc:title></dc:title></cc:Work></rdf:RDF></metadata><defs
   id="defs47" /><sodipodi:namedview
   pagecolor="#ffffff"
   bordercolor="#666666"
   borderopacity="1"
   objecttolerance="10"
   gridtolerance="10"
   guidetolerance="10"
   inkscape:pageopacity="0"
   inkscape:pageshadow="2"
   inkscape:window-width="2560"
   inkscape:window-height="1377"
   id="namedview45"
   showgrid="false"
   inkscape:zoom="2.9228631"
   inkscape:cx="221.40411"
   inkscape:cy="51.810782"
   inkscape:window-x="1912"
   inkscape:window-y="-8"
   inkscape:window-maximized="1"
   inkscape:current-layer="Layer_1" />
<style
   type="text/css"
   id="style2">
	.st0{fill:#13588F;}
</style>
<g
   id="g14">
	<path
   d="M80.23,57.45L80.23,57.45c-0.01,0.01-0.01,0.02-0.02,0.03c-5.97,12.86-19,21.8-34.09,21.8c-11.16,0-21.21-4.89-28.09-12.66   c-2.42-2.73-4.45-5.8-6-9.14c0-0.01-0.01-0.02-0.02-0.03c-1.06-0.07-2.09-0.24-3.07-0.5c-0.65-0.17-1.29-0.39-1.91-0.64   c0.08,0.21,0.16,0.43,0.25,0.64c1.81,4.6,4.42,8.8,7.65,12.44c7.65,8.61,18.8,14.05,31.2,14.05c17.63,0,32.74-10.99,38.84-26.49   c0.08-0.21,0.17-0.43,0.25-0.64c-0.61,0.25-1.25,0.47-1.91,0.64C82.31,57.21,81.29,57.39,80.23,57.45z"
   id="path4" />
	<path
   d="M12.19,25.61c0-0.01,0.01-0.02,0.01-0.02C18.25,12.92,31.18,4.15,46.13,4.15c11.16,0,21.2,4.89,28.09,12.65   c2.33,2.63,4.3,5.58,5.83,8.78c0,0.01,0.01,0.02,0.01,0.02c1.06,0.05,2.08,0.21,3.08,0.47c0.65,0.17,1.29,0.37,1.91,0.62   c-0.08-0.21-0.16-0.42-0.25-0.62c-1.8-4.44-4.34-8.49-7.47-12.02C69.67,5.44,58.52,0,46.13,0C28.65,0,13.65,10.8,7.45,26.07   c-0.08,0.2-0.17,0.41-0.25,0.62c0.62-0.25,1.25-0.45,1.91-0.62C10.1,25.82,11.13,25.66,12.19,25.61z"
   id="path6" />
	<path
   class="st0"
   d="M64.88,18.7c-0.15-0.12-0.3-0.25-0.46-0.37c-0.55-0.44-1.11-0.85-1.69-1.24c-0.18-0.12-0.36-0.24-0.54-0.36   c-0.18-0.12-0.36-0.23-0.54-0.34s-0.37-0.22-0.55-0.33c-0.73-0.43-1.48-0.83-2.24-1.19c-0.12-0.05-0.23-0.11-0.35-0.16   c-0.1-0.05-0.19-0.09-0.29-0.13c-0.2-0.09-0.39-0.17-0.59-0.26c-0.14-0.06-0.27-0.12-0.41-0.17c-0.19-0.07-0.37-0.15-0.56-0.22   c-0.19-0.07-0.37-0.14-0.57-0.21c-0.16-0.06-0.32-0.11-0.47-0.17c-0.22-0.07-0.44-0.15-0.66-0.22c-0.19-0.06-0.38-0.12-0.58-0.17   c-0.19-0.06-0.39-0.11-0.58-0.16c-0.24-0.07-0.47-0.12-0.71-0.18c-0.15-0.04-0.31-0.07-0.47-0.11c-0.2-0.05-0.39-0.09-0.59-0.13   c-6.93-1.42-14.15-0.3-20.33,3.16l-1.09,0.64l-0.05,0.02c-2.86,1.77-5.09,4.3-6.46,7.31c-0.27,0.61-0.52,1.23-0.71,1.86h4.97   c0.98-2.14,2.59-3.94,4.63-5.21l1.01-0.59c5.21-2.9,11.29-3.85,17.12-2.66c0.2,0.04,0.4,0.08,0.6,0.13c0.3,0.07,0.6,0.14,0.89,0.22   c0.49,0.13,0.98,0.28,1.46,0.44c0.16,0.05,0.32,0.11,0.48,0.17c0.16,0.05,0.32,0.11,0.47,0.17c0.16,0.06,0.32,0.12,0.47,0.19   c0.56,0.23,1.11,0.47,1.65,0.74c0.14,0.07,0.27,0.14,0.41,0.21c0.17,0.09,0.34,0.18,0.52,0.27c0.14,0.07,0.27,0.15,0.41,0.23   c0.14,0.08,0.28,0.16,0.42,0.24c0.16,0.1,0.32,0.2,0.48,0.3c0.15,0.09,0.3,0.19,0.44,0.28c0.58,0.38,1.15,0.79,1.7,1.22   c0.14,0.11,0.27,0.22,0.41,0.33c0.41,0.33,0.8,0.68,1.19,1.03c0.25,0.24,0.5,0.48,0.75,0.73c0.35,0.35,0.68,0.71,1.01,1.08   l3.47-3.08c-0.26-0.3-0.53-0.6-0.81-0.89c-0.14-0.15-0.28-0.29-0.42-0.43C66.39,20,65.65,19.33,64.88,18.7z"
   id="path8" />
	<path
   d="M86.34,30.63c-0.62-0.41-1.28-0.76-1.97-1.06c-0.96-0.42-1.97-0.72-3.02-0.89c-0.57-0.1-1.14-0.15-1.72-0.17   c-0.14,0-0.28-0.01-0.42-0.01H67.37h-3.52H30.41h-2.97h-4.69h-2.93h-6.78c-0.14,0-0.28,0-0.42,0.01c-0.59,0.02-1.16,0.07-1.72,0.17   c-1.06,0.17-2.07,0.48-3.02,0.89c-0.69,0.3-1.35,0.66-1.97,1.06C2.35,32.96,0,36.98,0,41.54c0,4.5,2.3,8.48,5.78,10.82h0   c0.62,0.42,1.28,0.79,1.97,1.09c0.94,0.42,1.95,0.74,3,0.92c0.57,0.1,1.14,0.17,1.73,0.19c0.19,0.01,0.37,0.01,0.57,0.01h11.83   h3.52h33.45c0.32-1.39,0.3-2.82-0.08-4.15H13.05c-0.64,0-1.26-0.07-1.86-0.2c-1.85-0.39-3.49-1.37-4.72-2.72   c-1.43-1.58-2.31-3.67-2.31-5.97c0-2.33,0.9-4.45,2.37-6.03c1.24-1.35,2.9-2.31,4.76-2.68c0.57-0.12,1.16-0.18,1.76-0.18h6.81h2.93   h4.7h2.99H79.2c0.6,0,1.19,0.06,1.76,0.18c1.87,0.37,3.52,1.33,4.76,2.68c1.47,1.58,2.38,3.71,2.38,6.04c0,2.3-0.88,4.39-2.31,5.97   c-1.24,1.35-2.88,2.32-4.72,2.71c-0.6,0.13-1.22,0.2-1.86,0.2h-6.81c0.17,1.38,0.17,2.77,0.03,4.15h6.78c0.2,0,0.38,0,0.57-0.01   c0.59-0.02,1.17-0.09,1.73-0.19c1.05-0.19,2.06-0.5,3-0.92c0.69-0.31,1.35-0.67,1.97-1.09c3.49-2.34,5.78-6.32,5.78-10.82   C92.25,36.98,89.9,32.96,86.34,30.63z"
   id="path10" />
	<path
   class="st0"
   d="M63.92,57.43c0,0.02-0.02,0.04-0.03,0.06c-0.99,2.14-2.59,3.95-4.62,5.21l-1.01,0.59   c-5.21,2.9-11.29,3.85-17.12,2.66c-5.27-1.08-10.03-3.82-13.57-7.78l-3.47,3.08c4.2,4.71,9.86,7.96,16.1,9.24   c1.96,0.4,3.94,0.6,5.91,0.6c5.02,0,9.99-1.28,14.43-3.76l1.14-0.66c2.86-1.77,5.09-4.3,6.47-7.31c0.27-0.61,0.52-1.23,0.71-1.86   c0.3-0.96,0.52-1.93,0.64-2.91c0.17-1.39,0.16-2.78-0.04-4.15c-0.14-0.99-0.37-1.96-0.7-2.91c-0.37-1.07-0.86-2.1-1.46-3.08   c-2.25-3.63-5.83-6.14-10.08-7.05c-2-0.43-4.04-0.48-6.02-0.17c-2.2,0.34-4.34,1.13-6.3,2.34c-5.55,3.44-12.73,1.92-16.01-3.37   c-0.13-0.21-0.25-0.42-0.36-0.64h-5.04c0.37,1.07,0.86,2.1,1.46,3.08c3.54,5.7,10.23,8.33,16.63,7.12   c1.98-0.37,3.93-1.11,5.76-2.24c2.7-1.67,5.86-2.24,8.9-1.58c3.01,0.64,5.53,2.41,7.11,4.96c0.13,0.21,0.25,0.42,0.36,0.64   c0.49,0.92,0.84,1.9,1.04,2.91c0.28,1.35,0.29,2.76,0.05,4.15C64.64,55.55,64.34,56.5,63.92,57.43z"
   id="path12" />
</g>
<g
   id="g42">
	<path
   d="M119.45,41.59c0-8.68,6.11-13.69,12.71-13.69c6.6,0,12.71,5.01,12.71,13.69c0,8.66-6.11,13.67-12.71,13.67   C125.56,55.26,119.45,50.24,119.45,41.59z M137.72,41.59c0-4.52-1.84-7.45-5.56-7.45c-3.71,0-5.56,2.93-5.56,7.45   c0,4.51,1.85,7.43,5.56,7.43C135.88,49.02,137.72,46.1,137.72,41.59z"
   id="path16" />
	<path
   d="M149.5,28.53h6.31l0.56,4.56h0.19c1.9-3.48,4.75-5.19,7.41-5.19c1.49,0,1.96,0.12,3.11,0.24v6.97   c-1.29-0.29-2.67-0.43-4.1-0.43c-1.73,0-3.79,0.98-5.21,3.64c-0.35,0.66-0.54,1.41-0.54,2.17v14.13h-7.73V28.53z"
   id="path18" />
	<path
   d="M172.74,28.53h7.73v26.09h-7.73V28.53z"
   id="path20" />
	<path
   d="M184.65,59.1c0-2.17,1.3-3.92,3.7-5.25v-0.21c-1.35-0.91-2.38-2.28-2.38-4.43c0-1.88,1.25-3.72,2.91-4.89v-0.21   c-1.84-1.28-3.5-3.72-3.5-6.77c0-6.26,5.17-9.44,10.79-9.44c1.45,0,2.87,0.23,4.04,0.63l4.92-2.57l3.62,4.36l-3.2,3.85   c0.49,0.78,0.88,2.07,0.88,3.44c0,6-4.57,8.77-10.27,8.77c-0.95,0-2.03-0.16-3.19-0.51c-0.64,0.56-0.91,1.02-0.91,1.94   c0,1.29,0.81,2.11,3.66,2.11l6.02,0.1c5.13,0.27,7.87,3.08,7.77,7.03c-0.14,5.41-5,8.67-13.96,8.67   C189.5,65.72,184.65,63.74,184.65,59.1z M202.77,57.67c0-1.65-1.41-2.02-3.98-2.02h-2.71c-1.79,0-2.81-0.1-3.66-0.33   c-0.96,0.82-1.41,1.62-1.41,2.56c0,1.98,2.29,2.99,5.78,2.99C200.28,60.87,202.77,59.47,202.77,57.67z M200.2,37.34   c0-2.78-1.71-4.24-4.03-4.24c-2.32,0-4.03,1.45-4.03,4.24c0,2.86,1.73,4.35,4.03,4.35C198.47,41.69,200.2,40.2,200.2,37.34z"
   id="path22" />
	<path
   d="M214.36,28.53h7.73v26.09h-7.73V28.53z"
   id="path24" />
	<path
   d="M228.89,28.53h7.4l0.33,2.68c2.2-2.11,4.15-3.31,7.71-3.31c5.67,0,8.09,4,8.09,10.52v16.2h-7.73V39.42   c0-3.75-1.01-4.93-3.24-4.93c-1.07,0-1.92,0.28-2.74,0.8c-1.31,0.83-2.09,2.29-2.09,3.83v15.51h-7.73V28.53z"
   id="path26" />
	<circle
   cx="176.61"
   cy="20.68"
   r="4.04"
   id="circle28" />
	<circle
   cx="218.23"
   cy="20.68"
   r="4.04"
   id="circle30" />
	<path
   d="M257.85,49.09l2.59-2.17c1.34,3.7,3.24,4.96,6.31,4.96c3.36,0,5.02-1.79,5.02-3.97c0-2.63-3.02-3.79-5.85-4.85   c-3.58-1.31-7.62-3.07-7.62-7.38c0-4.09,3.28-7.26,8.82-7.26c3.18,0,6.44,0.91,8.37,5.87l-2.46,2.07   c-0.89-3.36-3.59-4.57-5.86-4.57c-3.22,0-4.71,1.72-4.71,3.67c0,2.43,2.78,3.36,5.68,4.44c3.69,1.39,7.79,2.89,7.79,7.76   c0,4.15-3.29,7.6-9.33,7.6C262.97,55.26,259.4,53.7,257.85,49.09z"
   id="path32" />
	<path
   d="M283.14,46.72V32.58h-3.8v-3.27l1.74-0.11c1.29-0.08,2.33-1.1,2.42-2.4l0.36-4.91h3.61v7.17h6.93v3.52h-6.93V46.8   c0,3.12,1.01,4.94,3.95,4.94c0.91,0,2.08-0.34,2.91-0.69l0.84,3.26c-1.43,0.49-3.15,0.95-4.74,0.95   C284.98,55.26,283.14,51.81,283.14,46.72z"
   id="path34" />
	<path
   d="M298.83,47.35c0-5.57,4.65-8.74,15.7-8.87c-0.01-3.29-1.12-6.12-5.28-6.46c-2.68-0.22-5.31,1.23-6.89,3.24l-2.14-2.66   c2.65-2.82,6.28-4.56,9.76-4.15c6.19,0.74,8.88,4.15,8.88,10.51v15.68h-4.33V51.8c-2.44,2.03-5.04,3.49-8.21,3.49   C302.04,55.29,298.83,51.96,298.83,47.35z M314.53,48.42v-7.1c-8.75,0.26-11.66,2.77-11.66,6.03c0,3.02,2.34,4.63,4.42,4.63   C309.76,51.98,312.05,50.6,314.53,48.42z"
   id="path36" />
	<path
   d="M325.35,29.06l3.9,0l0.42,3.45c2.24-2.42,4.67-4.08,7.71-4.08c3.91,0,6,1.87,7.06,4.87c2.65-2.87,5.32-4.87,8.43-4.87   c5.25,0,7.78,3.48,7.78,10v16.2h-4.33V38.99c0-4.76-1.51-6.8-4.76-6.8c-1.58,0-3.22,0.83-5.02,2.5c-0.9,0.84-1.39,2.04-1.39,3.28   v16.66h-4.33V38.99c0-4.76-1.51-6.8-4.76-6.8c-1.53,0-3.19,0.83-5,2.5c-0.91,0.84-1.4,2.05-1.4,3.29l0,16.65h-4.32V29.06z"
   id="path38" />
	<path
   d="M366.3,29.06l3.99,0l0.34,2.75l0,0c2.31-1.92,4.94-3.38,7.91-3.38c6.61,0,10.14,5.13,10.14,13.03   c0,8.71-5.23,13.8-11.07,13.8c-2.34,0-4.62-0.99-6.97-2.87v4.37v8.65h-4.32V29.06z M384.19,41.49c0-5.64-1.93-9.42-6.74-9.42   c-1.65,0-3.31,0.69-5.1,2.04c-1.11,0.83-1.73,2.18-1.73,3.57v8.9c0,1.61,0.83,3.16,2.25,3.92c1.47,0.79,2.84,1.11,3.97,1.11   C381.08,51.62,384.19,47.81,384.19,41.49z"
   id="path40" />
</g>
</svg>